<svg width="417" height="339" viewBox="0 0 417 339" fill="none" xmlns="http://www.w3.org/2000/svg">
<style>
.text { fill: black; }

@media (prefers-color-scheme: dark) {
  .text { fill: white; }
}
</style>
<rect y="180" width="211" height="24" fill="#FFC22F"/>
<path class="text" d="M58.336 67.52L113.632 224.768L168.352 67.52H210.112L132.64 272H94.336L16.576 67.52H58.336Z"/>
<rect y="126" width="417" height="24" fill="#FFC22F"/>
<path class="text" d="M211.676 168.062C211.676 155.582 213.884 143.294 218.3 131.198C222.908 119.102 229.532 108.158 238.172 98.366C246.812 88.574 257.372 80.798 269.852 75.038C282.332 69.086 296.54 66.11 312.476 66.11C331.1 66.11 347.324 70.238 361.148 78.494C374.972 86.75 385.244 97.502 391.964 110.75L361.436 131.774C357.98 124.094 353.468 118.046 347.9 113.63C342.332 109.214 336.284 106.046 329.756 104.126C323.42 102.206 317.276 101.246 311.324 101.246C301.34 101.246 292.604 103.262 285.116 107.294C277.82 111.326 271.676 116.606 266.684 123.134C261.692 129.662 257.948 136.958 255.452 145.022C253.148 153.086 251.996 161.15 251.996 169.214C251.996 181.31 254.492 192.638 259.484 203.198C264.476 213.566 271.484 222.014 280.508 228.542C289.532 235.07 299.996 238.334 311.9 238.334C318.044 238.334 324.38 237.278 330.908 235.166C337.628 233.054 343.772 229.694 349.34 225.086C354.908 220.478 359.228 214.526 362.3 207.23L394.844 225.95C390.62 236.126 383.996 244.766 374.972 251.87C365.948 258.782 355.772 264.158 344.444 267.998C333.116 271.646 321.884 273.47 310.748 273.47C296.156 273.47 282.812 270.494 270.716 264.542C258.812 258.398 248.444 250.334 239.612 240.35C230.78 230.174 223.868 218.846 218.876 206.366C214.076 193.694 211.676 180.926 211.676 168.062Z"/>
<rect x="185" y="180" width="232" height="24" fill="#FFC22F"/>
</svg>
